<?xml version="1.0" encoding="UTF-8" standalone="no"?>
<svg
   viewBox="0 0 101.4585 120.66013"
   width="101.4585"
   height="120.66013"
   version="1.1"
   id="svg14"
   xmlns="http://www.w3.org/2000/svg"
   xmlns:svg="http://www.w3.org/2000/svg">
  <defs
     id="defs2">
    <linearGradient
       id="rocketGrad"
       x1="71.728371"
       y1="27.89707"
       x2="71.728371"
       y2="92.348473"
       gradientTransform="scale(0.96196329,1.0395407)"
       gradientUnits="userSpaceOnUse">
      <stop
         offset="0%"
         stop-color="#6366f1"
         id="stop1" />
      <stop
         offset="100%"
         stop-color="#8b5cf6"
         id="stop2" />
    </linearGradient>
    <linearGradient
       id="rocketGrad-3"
       x1="71.728371"
       y1="27.89707"
       x2="71.728371"
       y2="92.348473"
       gradientTransform="scale(0.96196329,1.0395407)"
       gradientUnits="userSpaceOnUse">
      <stop
         offset="0%"
         stop-color="#6366f1"
         id="stop1-6" />
      <stop
         offset="100%"
         stop-color="#8b5cf6"
         id="stop2-7" />
    </linearGradient>
  </defs>
  <!-- Cuerpo de la nave (triángulo redondeado) -->
  <polygon
     points="100,30 70,95 130,95 "
     fill="url(#rocketGrad)"
     stroke="#4f46e5"
     stroke-width="2"
     stroke-linejoin="round"
     id="polygon2"
     style="fill:url(#rocketGrad)"
     transform="translate(-49.250307,-19.339873)" />
  <polygon
     points="70,95 130,95 100,30 "
     fill="url(#rocketGrad)"
     stroke="#4f46e5"
     stroke-width="2"
     stroke-linejoin="round"
     id="polygon2-3"
     style="fill:url(#rocketGrad-3)"
     transform="matrix(0.51554744,0,0,0.40286125,-0.80510799,-11.683032)" />
  <!-- Punta de la nave (óvalo/elipse en la parte superior) -->
  <ellipse
     cx="50.263077"
     cy="15.550637"
     rx="17.54258"
     ry="10.350365"
     fill="#818cf8"
     id="ellipse2"
     style="display:none;stroke-width:1.13883" />
  <!-- Ventana/cockpit -->
  <circle
     cx="50.749695"
     cy="45.660126"
     r="6"
     fill="#ffffff"
     opacity="0.9"
     id="circle2" />
  <!-- Aletas laterales -->
  <polygon
     points="70,95 50,115 80,100 "
     fill="#8b5cf6"
     stroke="#4f46e5"
     stroke-width="1.5"
     stroke-linejoin="round"
     id="polygon3"
     transform="translate(-49.250307,-19.339873)" />
  <polygon
     points="150,115 120,100 130,95 "
     fill="#8b5cf6"
     stroke="#4f46e5"
     stroke-width="1.5"
     stroke-linejoin="round"
     id="polygon4"
     transform="matrix(1.0051273,0,0,1.1171794,-50.064141,-30.427153)" />
  <!-- Llamas de despegue -->
  <polygon
     points="90,98 100,140 110,98 "
     fill="#f59e0b"
     opacity="0.9"
     id="polygon5"
     transform="translate(-49.250307,-19.339873)" />
  <polygon
     points="93,100 100,125 107,100 "
     fill="#fbbf24"
     opacity="0.8"
     id="polygon6"
     transform="translate(-49.250307,-19.339873)" />
  <polygon
     points="96,102 100,115 104,102 "
     fill="#fef3c7"
     id="polygon7"
     transform="translate(-49.250307,-19.339873)" />
  <!-- Líneas de velocidad minimalistas (a los costados) -->
  <!-- Estrellas decorativas -->
</svg>
